HIERARCHY
ROOT Hips
{
	OFFSET 0.000000 0.000000 0.000000 
	CHANNELS 6 Xposition Yposition Zposition Yrotation Zrotation Xrotation 
	JOINT Lumbar
	{
		OFFSET 0.000000 0.000000 0.000000 
		CHANNELS 3 Zrotation Xrotation Yrotation
		JOINT Neck
		{
			OFFSET 0.000000 0.445665 0.000000 
			CHANNELS 3 Zrotation Xrotation Yrotation
			End Site
			{
				OFFSET 0.000000 0.227535 0.000000 
			}
		}
		JOINT RightShoulder
		{
			OFFSET 0.019635 0.377685 0.194865 
			CHANNELS 3 Zrotation Xrotation Yrotation
			JOINT RightElbow
			{
				OFFSET 0.000000 -0.243375 0.000000 
				CHANNELS 2 Zrotation Yrotation
				JOINT RightWrist
				{
					OFFSET 0.000000 -0.264825 0.000000 
					CHANNELS 2 Zrotation Xrotation
					End Site
					{
						OFFSET 0.006600 -0.176220 0.000990 
					}
				}
			}
		}
		JOINT LeftShoulder
		{
			OFFSET 0.019635 0.377685 -0.194865 
			CHANNELS 3 Zrotation Xrotation Yrotation
			JOINT LeftElbow
			{
				OFFSET 0.000000 -0.243375 0.000000 
				CHANNELS 2 Zrotation Yrotation
				JOINT LeftWrist
				{
					OFFSET 0.000000 -0.264825 0.000000 
					CHANNELS 2 Zrotation Xrotation
					End Site
					{
						OFFSET 0.006600 -0.176220 -0.000990 
					}
				}
			}
		}
	}
	JOINT RightHip
	{
		OFFSET 0.052140 -0.069960 0.075570 
		CHANNELS 3 Zrotation Xrotation Yrotation
		JOINT RightKnee
		{
			OFFSET 0.000000 -0.402270 0.000000 
			CHANNELS 1 Zrotation
			JOINT RightAnkle
			{
				OFFSET 0.000000 -0.404085 0.000000 
				CHANNELS 3 Zrotation Xrotation Yrotation
				End Site
				{
					OFFSET 0.204105 -0.089430 0.008415 
				}
			}
		}
	}
	JOINT LeftHip
	{
		OFFSET 0.052140 -0.069960 -0.075570 
		CHANNELS 3 Zrotation Xrotation Yrotation
		JOINT LeftKnee
		{
			OFFSET 0.000000 -0.402270 0.000000 
			CHANNELS 1 Zrotation
			JOINT LeftAnkle
			{
				OFFSET 0.000000 -0.404085 0.000000 
				CHANNELS 3 Zrotation Xrotation Yrotation
				End Site
				{
					OFFSET 0.204105 -0.089430 -0.008415 
				}
			}
		}
	}
}
MOTION
Frames: 26
Frame Time: 0.02
-0 0.95578 0 177.4176 0 -2.25802 5.84032 2.07388 -0.28449 -14.6102 0.89694 1.93709 -3.90125 -65.04826 -84.66616 20.85663 76.0533 -19.21863 -1.84381 12.70338 69.99048 65.21653 17.72215 -78.77545 -24.45473 2.74951 -4.61484 6.59599 -5.98268 -8.52092 4.20604 -4.57359 -8.95909 -2.766 1.18168 4.90341 -6.25809 5.47044 4.81695 8.36708
0.00049 0.95587 -0.00025 177.33023 0 -2.25959 5.82272 2.11576 -0.18436 -14.82534 0.83117 1.92503 -3.65388 -65.01234 -84.59403 20.87986 76.05873 -19.20442 -1.83664 12.9407 70.06157 65.11294 17.73976 -78.7181 -24.45682 2.73687 -4.54422 6.60701 -5.81058 -8.58452 4.15245 -4.598 -9.04318 -2.73406 1.19158 4.92867 -6.28011 5.44054 4.81707 8.43263
0.00099 0.95595 -0.0005 177.24317 0 -2.26133 5.80466 2.15763 -0.08473 -15.04056 0.76605 1.91317 -3.40565 -64.97701 -84.52122 20.90268 76.0644 -19.19003 -1.8296 13.17907 70.13148 65.00847 17.75767 -78.66131 -24.45847 2.72441 -4.47309 6.61798 -5.63909 -8.64861 4.09857 -4.62197 -9.12683 -2.70166 1.20158 4.95374 -6.30245 5.41048 4.81718 8.49802
0.0015 0.95604 -0.00074 177.15694 0 -2.26366 5.78504 2.19979 0.01338 -15.255 0.70231 1.90204 -3.15625 -64.94285 -84.44686 20.92405 76.07148 -19.17524 -1.82313 13.41947 70.1985 64.90276 17.77518 -78.60533 -24.45869 2.71272 -4.40009 6.6289 -5.46897 -8.71479 4.0432 -4.64435 -9.20914 -2.66757 1.21203 4.97788 -6.32632 5.3797 4.81732 8.56335
0.00194 0.95611 -0.00101 177.06682 0 -2.26273 5.77426 2.24028 0.11891 -15.4697 0.63055 1.88709 -2.91873 -64.90147 -84.38299 20.95308 76.07155 -19.16309 -1.81378 13.64368 70.28219 64.80763 17.79267 -78.54392 -24.46684 2.69716 -4.33804 6.64012 -5.29235 -8.7693 3.99595 -4.67505 -9.29811 -2.64297 1.22008 5.00648 -6.34214 5.35299 4.81739 8.62892
0.00254 0.95622 -0.00121 176.98467 0 -2.26883 5.74441 2.28435 0.20907 -15.68627 0.5763 1.88021 -2.65247 -64.87609 -84.29545 20.96592 76.08616 -19.145 -1.81045 13.90559 70.32961 64.68746 17.81164 -78.49484 -24.45797 2.68968 -4.25218 6.6507 -5.12917 -8.84884 3.93142 -4.68821 -9.3732 -2.59794 1.23319 5.02592 -6.37493 5.31753 4.81756 8.69397
0.00357 0.95647 -0.00124 176.92588 0 -2.29418 5.66224 2.33936 0.25399 -15.89255 0.56669 1.89656 -2.32831 -64.89002 -84.15046 20.93236 76.14569 -19.11241 -1.82508 14.25239 70.28218 64.51453 17.82347 -78.47477 -24.40259 2.70618 -4.10121 6.65968 -5.00378 -8.99924 3.81698 -4.65092 -9.4082 -2.49638 1.26116 5.01689 -6.45752 5.25746 4.81857 8.75909
0.00477 0.95677 -0.0012 176.87481 0 -2.3267 5.56059 2.39783 0.28384 -16.10402 0.57539 1.92103 -1.97061 -64.92088 -83.97978 20.88278 76.21943 -19.07327 -1.84569 14.6415 70.19698 64.3125 17.83915 -78.46909 -24.33025 2.73069 -3.92568 6.66801 -4.89164 -9.17506 3.68547 -4.5963 -9.42966 -2.37404 1.2941 4.99915 -6.5568 5.1886 4.81958 8.8235
0.00591 0.95705 -0.00118 176.81924 0 -2.35608 5.46763 2.45417 0.3226 -16.32317 0.57817 1.94099 -1.61412 -64.94735 -83.81575 20.84153 76.28316 -19.03605 -1.86253 15.0238 70.1257 64.11368 17.86001 -78.4588 -24.26482 2.75024 -3.76108 6.67654 -4.77288 -9.33788 3.56287 -4.55085 -9.45839 -2.26123 1.32424 4.98743 -6.64664 5.12395 4.8202 8.88735
0.00698 0.95734 -0.00121 176.76784 0 -2.38494 5.37569 2.513 0.35309 -16.49902 0.57101 1.96385 -1.31774 -64.96041 -83.67371 20.79568 76.3604 -19.00398 -1.88322 15.35226 70.06864 63.95968 17.85044 -78.43619 -24.20125 2.77467 -3.59845 6.68547 -4.65686 -9.50547 3.43493 -4.49978 -9.48197 -2.1483 1.35669 4.96704 -6.74429 5.05831 4.82242 8.95492
0.00825 0.95761 -0.00111 176.70961 0 -2.41663 5.2766 2.56728 0.39664 -16.76743 0.58867 1.98329 -0.88713 -65.00477 -83.47883 20.75583 76.41472 -18.95879 -1.89804 15.80462 69.97235 63.70224 17.90668 -78.4479 -24.13166 2.79169 -3.42467 6.69341 -4.53806 -9.67081 3.31466 -4.4565 -9.51358 -2.03038 1.38546 4.96259 -6.82965 4.99278 4.82139 9.01459
0.00999 0.95783 -0.00068 176.63055 0 -2.4539 5.1655 2.60967 0.48502 -17.28013 0.67247 1.98534 -0.10288 -65.13631 -83.15127 20.7345 76.38887 -18.88665 -1.88937 16.574 69.7821 63.1934 18.13061 -78.50848 -24.03696 2.77935 -3.23598 6.69873 -4.4103 -9.81023 3.21459 -4.43739 -9.56646 -1.90628 1.40339 5.00478 -6.87688 4.9283 4.81071 9.05256
0.01195 0.95804 -0.00012 176.54444 0 -2.49381 5.04715 2.64694 0.58604 -17.88733 0.78024 1.98469 0.81687 -65.29741 -82.76958 20.72017 76.34358 -18.80058 -1.87586 17.46896 69.55242 62.5765 18.42304 -78.6128 -23.94152 2.76074 -3.03479 6.70304 -4.27903 -9.94943 3.12384 -4.42709 -9.62875 -1.77732 1.41731 5.06314 -6.91122 4.86448 4.79688 9.08257
0.01384 0.95825 0.0004 176.46153 0 -2.53292 4.93033 2.68579 0.67803 -18.45828 0.8757 1.98929 1.68052 -65.44237 -82.40882 20.7039 76.31397 -18.71523 -1.86816 18.31664 69.33781 61.99122 18.69274 -78.72256 -23.85167 2.74934 -2.83322 6.70791 -4.14793 -10.09701 3.03213 -4.41371 -9.6894 -1.64904 1.43278 5.11387 -6.95146 4.80128 4.78498 9.11633
0.01562 0.95849 0.00086 176.37864 0 -2.57087 4.8209 2.72858 0.78364 -19.00259 0.97778 1.97757 2.5226 -65.60124 -82.06491 20.68169 76.24941 -18.65137 -1.84467 19.12618 69.13514 61.47844 18.92724 -78.71852 -23.72926 2.71914 -2.65755 6.71249 -4.02287 -10.20878 2.92579 -4.39555 -9.73815 -1.52687 1.44974 5.1658 -6.99194 4.73393 4.77107 9.1497
0.01768 0.95866 0.00147 176.29427 0 -2.6114 4.69381 2.76107 0.86375 -19.62293 1.07154 1.99861 3.44084 -65.73558 -81.67053 20.67391 76.26105 -18.54202 -1.85381 20.04228 68.89719 60.78977 19.25109 -78.971 -23.687 2.72737 -2.42379 6.71721 -3.8848 -10.39696 2.85264 -4.38998 -9.81448 -1.39063 1.46237 5.2188 -7.02883 4.67547 4.76048 9.18176
0.02043 0.95868 0.00244 176.20464 0 -2.66159 4.52629 2.77336 0.87328 -20.44533 1.13636 2.11483 4.53973 -65.81318 -81.17392 20.70293 76.4195 -18.29042 -1.94597 21.23886 68.58308 59.63782 19.80786 -79.83571 -23.75916 2.83495 -2.04565 6.72474 -3.70632 -10.77708 2.86622 -4.41425 -9.96122 -1.22055 1.4662 5.27415 -7.05734 4.64161 4.76076 9.21447
0.02347 0.95864 0.00356 176.11426 0 -2.71376 4.33988 2.77418 0.85624 -21.33771 1.19194 2.26332 5.70926 -65.86039 -80.62358 20.74667 76.66917 -17.99835 -2.07269 22.53392 68.23175 58.31329 20.45239 -80.96867 -23.93053 2.98245 -1.60727 6.73213 -3.51566 -11.2373 2.91328 -4.45132 -10.13599 -1.03579 1.46555 5.32944 -7.08292 4.61669 4.76434 9.24577
0.02641 0.95862 0.00461 176.02607 0 -2.76279 4.1582 2.77561 0.84949 -22.18857 1.2517 2.39437 6.84458 -65.91101 -80.08285 20.78446 76.92038 -17.73667 -2.1889 23.7739 67.89141 57.07077 21.05381 -82.04019 -24.12875 3.11768 -1.188 6.73799 -3.33416 -11.67361 2.94707 -4.48462 -10.30036 -0.85545 1.46535 5.38263 -7.11079 4.58761 4.76578 9.27611
0.02924 0.95862 0.00567 175.92983 0 -2.82096 3.99349 2.79617 0.8507 -23.08543 1.31228 2.53709 7.99557 -66.01154 -79.6046 20.8189 76.98466 -17.41959 -2.28281 25.06619 67.57915 55.81011 21.66808 -82.87548 -24.02961 3.22987 -0.80286 6.75012 -3.13776 -12.05827 2.97373 -4.51025 -10.45559 -0.68477 1.47113 5.44541 -7.13407 4.55898 4.76972 9.31268
0.03238 0.95857 0.00674 175.85029 0 -2.86102 3.78785 2.77437 0.82889 -23.89975 1.36878 2.66314 9.12638 -65.99428 -78.98185 20.86429 77.46615 -17.21381 -2.43171 26.26588 67.19449 54.54669 22.2795 -84.24395 -24.56539 3.39713 -0.33288 6.74973 -2.96888 -12.56817 3.02211 -4.55394 -10.63588 -0.49013 1.46415 5.48792 -7.16649 4.53147 4.76936 9.33639
0.03627 0.95838 0.00783 175.81674 0 -2.84648 3.48407 2.63724 0.74948 -24.48693 1.41499 2.73572 10.20585 -65.71083 -77.99187 20.93044 79.02199 -17.2767 -2.72128 27.23236 66.66577 53.32565 22.82338 -87.21177 -26.89281 3.72868 0.3596 6.71004 -2.88457 -13.41539 3.13115 -4.65176 -10.88178 -0.23685 1.41714 5.47553 -7.22343 4.50531 4.75551 9.32158
0.04047 0.95814 0.00893 175.79997 0 -2.81453 3.13796 2.45826 0.64785 -24.98494 1.45755 2.79037 11.25832 -65.29926 -76.85425 21.0075 81.00154 -17.46013 -3.06532 28.09363 66.05613 52.10624 23.36532 -90.67359 -29.83942 4.11067 1.13441 6.65868 -2.82733 -14.38335 3.25956 -4.766 -11.15038 0.04052 1.35871 5.44278 -7.28967 4.47979 4.7373 9.29438
0.04456 0.95793 0.01002 175.77596 0 -2.79307 2.80438 2.299 0.55665 -25.51145 1.50243 2.8529 12.30759 -64.91337 -75.77338 21.08424 82.82791 -17.62287 -3.38645 28.97102 65.45415 50.88237 23.93645 -93.77897 -32.46738 4.45454 1.87 6.6158 -2.754 -15.28934 3.37277 -4.86774 -11.40754 0.30964 1.30919 5.41815 -7.35307 4.45381 4.72171 9.27529
0.04854 0.95771 0.01116 175.75094 0 -2.76023 2.49801 2.13572 0.46309 -26.09079 1.54407 2.91755 13.42265 -64.66722 -74.73782 21.14464 84.50535 -17.64855 -3.70179 29.9829 64.97715 49.67076 24.40282 -97.43891 -35.27525 4.862 2.61685 6.55944 -2.69623 -16.22997 3.51266 -4.99079 -11.67414 0.56874 1.24314 5.39699 -7.41188 4.42923 4.70384 9.24637
0.05282 0.95749 0.01218 175.73118 0 -2.74764 2.12571 1.97187 0.36955 -26.53856 1.59188 2.97325 14.39595 -64.09571 -73.56907 21.23803 86.57467 -17.97846 -4.04067 30.69193 64.21687 48.43295 25.07117 -100.07248 -37.83013 5.15094 3.35709 6.52846 -2.61264 -17.12374 3.60303 -5.07369 -11.92147 0.85316 1.20971 5.36543 -7.48076 4.40128 4.68928 9.23415
